<svg width="15" height="13" viewBox="0 0 15 13" fill="none" xmlns="http://www.w3.org/2000/svg">
<path d="M9.93441 10.3187C9.82467 10.5394 9.76677 10.7837 9.76699 11.0328L9.93441 10.3187ZM9.93441 10.3187H10.0889V10.0687L9.88915 9.91838C9.85256 9.96697 9.81853 10.0172 9.7871 10.0687H7.87275C7.84164 10.0174 7.80805 9.96752 7.77209 9.91929L7.57168 10.0687V10.3187H7.72513C7.83436 10.539 7.89356 10.7835 7.89356 11.0328C7.89356 11.9172 7.17481 12.6359 6.29043 12.6359C5.40605 12.6359 4.68731 11.9172 4.68731 11.0328L9.93441 10.3187ZM4.89102 8.85701L4.71418 9.21719H5.11543H14.42C14.5001 9.21723 14.577 9.24896 14.6338 9.30545C14.6904 9.36177 14.7225 9.43813 14.7232 9.51797C14.7228 9.68377 14.5869 9.81875 14.4217 9.81875H12.6514H12.1531L12.451 10.2182C12.6258 10.4526 12.7232 10.7395 12.7232 11.0328C12.7232 11.7791 12.1164 12.3859 11.3701 12.3859C10.6238 12.3859 10.017 11.7791 10.017 11.0328V11.0326C10.0167 10.7391 10.1121 10.4536 10.2886 10.2191L10.59 9.81875H10.0889H7.57168H7.07337L7.37127 10.2182C7.54607 10.4526 7.64356 10.7395 7.64356 11.0328C7.64356 11.7791 7.03673 12.3859 6.29043 12.3859C5.54413 12.3859 4.93731 11.7791 4.93731 11.0328V11.0326C4.93705 10.7391 5.03239 10.4536 5.2089 10.2191L5.51034 9.81875H5.00918H4.02793C3.9133 9.81875 3.81039 9.75504 3.75897 9.65307L3.75898 9.65307L3.75807 9.65129C3.73278 9.60212 3.72176 9.54685 3.72625 9.49174C3.73075 9.43663 3.75057 9.38388 3.78349 9.33945L3.79004 9.33061L3.7958 9.32122L4.96455 7.41341L5.0162 7.32909L4.9962 7.23224L4.08839 2.83693L4.0882 2.83604L3.71945 1.08292L3.67769 0.884375H3.4748H1.50762C1.42764 0.884375 1.35093 0.852603 1.29438 0.796049C1.23783 0.739495 1.20605 0.662792 1.20605 0.582812C1.20605 0.502833 1.23783 0.426129 1.29438 0.369576C1.35093 0.313022 1.42764 0.28125 1.50762 0.28125H3.92168C4.06354 0.28125 4.18896 0.383485 4.21764 0.520101L4.21777 0.520738L4.30215 0.917612L4.3441 1.11495L4.54585 1.11562L14.4202 1.14843C14.4203 1.14843 14.4204 1.14843 14.4205 1.14843C14.4634 1.14873 14.5058 1.15834 14.5447 1.1766C14.5835 1.19487 14.618 1.22135 14.6456 1.25422C14.7006 1.32017 14.7237 1.40763 14.7084 1.49364L13.6335 7.51023C13.6335 7.51032 13.6334 7.51041 13.6334 7.5105C13.608 7.65072 13.4866 7.75156 13.3451 7.75156L13.3447 7.75156L5.58216 7.76562L5.42671 7.76591L5.35821 7.90545L4.89102 8.85701ZM4.77719 1.70313L4.468 1.70211L4.53174 2.00466L5.58017 6.98122L5.62206 7.18005L5.82525 7.17969L12.8924 7.16719L13.1014 7.16682L13.1381 6.96114L14.0194 2.02677L14.0717 1.7338L13.7741 1.73281L4.77719 1.70313ZM5.54668 11.0328C5.54668 11.4428 5.88048 11.7766 6.29043 11.7766C6.48769 11.7766 6.67686 11.6982 6.81634 11.5587C6.95582 11.4192 7.03418 11.2301 7.03418 11.0328C7.03418 10.6229 6.70038 10.2891 6.29043 10.2891C5.88048 10.2891 5.54668 10.6229 5.54668 11.0328ZM10.6264 11.0328C10.6264 11.4428 10.9602 11.7766 11.3701 11.7766C11.5674 11.7766 11.7565 11.6982 11.896 11.5587C12.0355 11.4192 12.1139 11.2301 12.1139 11.0328C12.1139 10.6229 11.7801 10.2891 11.3701 10.2891C10.9602 10.2891 10.6264 10.6229 10.6264 11.0328Z" fill="white" stroke="white" stroke-width="0.5"/>
</svg>
