<svg width="34" height="31" viewBox="0 0 34 31" fill="none" xmlns="http://www.w3.org/2000/svg">
<path d="M9.92519 21.9369L9.74835 22.2971H10.1496H32.2481C32.5292 22.2972 32.7987 22.4085 32.998 22.6067C33.1972 22.8047 33.31 23.0734 33.3119 23.3542C33.3114 23.9389 32.834 24.4133 32.2519 24.4133H28.0475H27.5491L27.847 24.8127C28.3054 25.4274 28.5619 26.1805 28.5619 26.9529C28.5619 28.9152 26.9668 30.5104 25.0045 30.5104C23.0422 30.5104 21.4471 28.9152 21.4471 26.9529V26.9527C21.4464 26.181 21.6971 25.4301 22.1612 24.8137L22.4627 24.4133H21.9615H15.9832H15.4849L15.7828 24.8127C16.2412 25.4274 16.4977 26.1805 16.4977 26.9529C16.4977 28.9152 14.9025 30.5104 12.9402 30.5104C10.9779 30.5104 9.38281 28.9152 9.38281 26.9529V26.9527C9.38213 26.181 9.63283 25.4301 10.097 24.8137L10.3984 24.4133H9.89726H7.56679C7.16427 24.4133 6.8014 24.1884 6.62108 23.8308L6.62017 23.829C6.53078 23.6552 6.49182 23.4598 6.5077 23.265C6.52358 23.0701 6.59367 22.8836 6.71005 22.7266L6.7166 22.7177L6.72235 22.7083L9.49813 18.1773L9.54979 18.093L9.52979 17.9961L7.37373 7.55724L7.37355 7.55635L6.49777 3.39268L6.456 3.19414H6.25312H1.58105C1.29993 3.19414 1.03032 3.08247 0.831543 2.88369C0.632762 2.6849 0.521088 2.4153 0.521088 2.13418C0.521088 1.85306 0.632762 1.58346 0.831543 1.38467C1.03032 1.18589 1.29993 1.07422 1.58105 1.07422H7.31445C7.81295 1.07422 8.25204 1.42997 8.35376 1.91463L8.3539 1.91527L8.55429 2.85785L8.59624 3.05519L8.79799 3.05586L32.2505 3.13378C32.2506 3.13379 32.2507 3.13379 32.2508 3.13379C32.4027 3.13472 32.5527 3.16868 32.6902 3.23332C32.8278 3.29795 32.9496 3.3917 33.0473 3.50809C33.2441 3.74375 33.3252 4.05462 33.2713 4.35759C33.2713 4.35763 33.2713 4.35767 33.2713 4.3577L30.7182 18.6479C30.6284 19.1449 30.1976 19.5037 29.6951 19.5037H29.6947L11.2587 19.5371L11.1033 19.5374L11.0348 19.6769L9.92519 21.9369ZM9.34516 5.13867L9.03596 5.13765L9.0997 5.44021L11.5897 17.2595L11.6316 17.4584L11.8348 17.458L28.6194 17.4283L28.8283 17.4279L28.865 17.2223L30.958 5.50313L31.0103 5.21016L30.7127 5.20918L9.34516 5.13867ZM11.5176 26.9529C11.5176 27.7367 12.1565 28.3756 12.9402 28.3756C13.3175 28.3756 13.6794 28.2257 13.9462 27.9589C14.213 27.6921 14.3629 27.3302 14.3629 26.9529C14.3629 26.1692 13.724 25.5303 12.9402 25.5303C12.1565 25.5303 11.5176 26.1692 11.5176 26.9529ZM23.5818 26.9529C23.5818 27.7367 24.2207 28.3756 25.0045 28.3756C25.3818 28.3756 25.7437 28.2257 26.0105 27.9589C26.2773 27.6921 26.4271 27.3302 26.4271 26.9529C26.4271 26.1692 25.7883 25.5303 25.0045 25.5303C24.2207 25.5303 23.5818 26.1692 23.5818 26.9529Z" fill="#4971FF" stroke="white" stroke-width="0.5"/>
</svg>
