<svg width="16" height="15" viewBox="0 0 16 15" fill="none" xmlns="http://www.w3.org/2000/svg">
<path d="M4.53057 10.2279L4.35373 10.5881H4.75498H15.2226C15.321 10.5881 15.4154 10.6271 15.4851 10.6965C15.5547 10.7657 15.5942 10.8595 15.595 10.9576C15.5946 11.1615 15.4277 11.3273 15.2245 11.3273H13.2329H12.7346L13.0325 11.7268C13.2331 11.9958 13.345 12.325 13.345 12.6619C13.345 13.5188 12.6484 14.2154 11.7915 14.2154C10.9347 14.2154 10.238 13.5188 10.238 12.6619V12.6617C10.2377 12.3248 10.3472 11.9969 10.5498 11.7277L10.8513 11.3273H10.3501H7.51826H7.01996L7.31786 11.7268C7.51843 11.9958 7.63037 12.325 7.63037 12.6619C7.63037 13.5188 6.93371 14.2154 6.07686 14.2154C5.22001 14.2154 4.52334 13.5188 4.52334 12.6619V12.6617C4.52304 12.3248 4.63251 11.9969 4.83517 11.7277L5.13661 11.3273H4.63545H3.53154C3.39074 11.3273 3.2642 11.249 3.20106 11.1238L3.20107 11.1238L3.20016 11.122C3.16904 11.0615 3.15548 10.9935 3.16101 10.9257C3.16654 10.8579 3.19094 10.793 3.23144 10.7383L3.23799 10.7294L3.24374 10.72L4.55859 8.57376L4.61025 8.48944L4.59024 8.3926L3.56896 3.44787L3.56877 3.44698L3.15392 1.47471L3.11216 1.27617H2.90928H0.696191C0.597927 1.27617 0.503687 1.23714 0.434203 1.16765C0.364719 1.09817 0.325684 1.00393 0.325684 0.905664C0.325684 0.807399 0.364719 0.713159 0.434203 0.643675C0.503686 0.574192 0.597927 0.535156 0.696191 0.535156H3.41201C3.5863 0.535156 3.74023 0.660438 3.77555 0.828694L3.77568 0.829331L3.8706 1.27582L3.91256 1.47316L4.11431 1.47383L15.223 1.51074C15.2231 1.51074 15.2232 1.51074 15.2233 1.51074C15.2762 1.51109 15.3283 1.52291 15.3762 1.54539C15.424 1.56786 15.4663 1.60042 15.5003 1.64085C15.5683 1.72224 15.5967 1.83006 15.5778 1.93582L14.3685 8.70456C14.3685 8.70465 14.3685 8.70473 14.3685 8.70481C14.3372 8.87746 14.1877 9.00176 14.0134 9.00176H14.0129L5.28011 9.01758L5.12466 9.01786L5.05616 9.1574L4.53057 10.2279ZM4.37436 2.19727L4.06517 2.19625L4.12891 2.4988L5.3084 8.09744L5.35028 8.29626L5.55347 8.2959L13.5041 8.28184L13.713 8.28147L13.7497 8.07579L14.7411 2.52462L14.7934 2.23165L14.4958 2.23067L4.37436 2.19727ZM5.27139 12.6619C5.27139 13.1058 5.63293 13.4674 6.07686 13.4674C6.29048 13.4674 6.49535 13.3825 6.64641 13.2315C6.79746 13.0804 6.88232 12.8755 6.88232 12.6619C6.88232 12.218 6.52079 11.8564 6.07686 11.8564C5.63293 11.8564 5.27139 12.218 5.27139 12.6619ZM10.986 12.6619C10.986 13.1058 11.3476 13.4674 11.7915 13.4674C12.0051 13.4674 12.21 13.3825 12.3611 13.2315C12.5121 13.0804 12.597 12.8755 12.597 12.6619C12.597 12.218 12.2354 11.8564 11.7915 11.8564C11.3476 11.8564 10.986 12.218 10.986 12.6619Z" fill="white" stroke="white" stroke-width="0.5"/>
</svg>
