<svg width="57" height="57" viewBox="0 0 57 57" fill="none" xmlns="http://www.w3.org/2000/svg">
<circle cx="28.5" cy="28.5" r="28.5" fill="#EEF1F3"/>
<path d="M26.1438 29C27.5825 29 28.6438 27.9388 28.6438 26.5C28.6438 25.0612 27.5825 24 26.1438 24C24.705 24 23.6438 25.0612 23.6438 26.5C23.6438 27.9388 24.7038 29 26.1438 29Z" fill="#4971FF"/>
<path d="M39 19H19C17.6212 19 16.5 20.0512 16.5 21.3438V36.6562C16.5 37.9488 17.6212 39 19 39H39C40.3788 39 41.5 37.9488 41.5 36.6562V21.3438C41.5 20.0512 40.3788 19 39 19ZM39 36.5L19 36.4863V21.5L39 21.5138V36.5Z" fill="#4971FF"/>
<path d="M31.5 25.25H36.5V27.75H31.5V25.25ZM32.75 30.25H36.5V32.75H32.75V30.25ZM30.7875 33.42C30.7875 31.7025 28.6925 29.9375 26.1438 29.9375C23.595 29.9375 21.5 31.7025 21.5 33.42V34H30.7875V33.42Z" fill="#4971FF"/>
</svg>
