<svg width="57" height="57" viewBox="0 0 57 57" fill="none" xmlns="http://www.w3.org/2000/svg">
<circle cx="28.5" cy="28.5" r="28.5" fill="#EEF1F3"/>
<path d="M26.4731 34.993V26.3253H25.4445C24.7078 26.718 23.9958 27.1554 23.3125 27.635V28.7644C23.9219 28.3468 24.8871 27.7569 25.3567 27.5018H25.3762V34.993H26.4731V34.993ZM28.4036 32.8724C28.48 33.9124 29.3689 35.1571 31.171 35.1571C33.2153 35.1571 34.421 33.4249 34.421 30.4918C34.421 27.349 33.1519 26.1562 31.2474 26.1562C29.7426 26.1562 28.3272 27.2483 28.3272 29.0959C28.3272 30.9809 29.6663 31.9721 31.0508 31.9721C32.263 31.9721 33.0495 31.3611 33.2981 30.6884H33.342C33.3355 32.8269 32.5929 34.2049 31.2214 34.2049C30.1424 34.2049 29.5834 33.4736 29.5151 32.8724H28.4036V32.8724ZM33.2023 29.1072C33.2023 30.2382 32.2939 31.0248 31.2783 31.0248C30.3016 31.0248 29.4193 30.4024 29.4193 29.0747C29.4193 27.7374 30.365 27.1085 31.3172 27.1085C32.3459 27.1085 33.2023 27.7552 33.2023 29.1072Z" fill="#4971FF"/>
<path d="M21.6875 16C21.903 16 22.1097 16.0856 22.262 16.238C22.4144 16.3903 22.5 16.597 22.5 16.8125V17.625H35.5V16.8125C35.5 16.597 35.5856 16.3903 35.738 16.238C35.8903 16.0856 36.097 16 36.3125 16C36.528 16 36.7347 16.0856 36.887 16.238C37.0394 16.3903 37.125 16.597 37.125 16.8125V17.625H38.75C39.612 17.625 40.4386 17.9674 41.0481 18.5769C41.6576 19.1864 42 20.013 42 20.875V38.75C42 39.612 41.6576 40.4386 41.0481 41.0481C40.4386 41.6576 39.612 42 38.75 42H19.25C18.388 42 17.5614 41.6576 16.9519 41.0481C16.3424 40.4386 16 39.612 16 38.75V20.875C16 20.013 16.3424 19.1864 16.9519 18.5769C17.5614 17.9674 18.388 17.625 19.25 17.625H20.875V16.8125C20.875 16.597 20.9606 16.3903 21.113 16.238C21.2653 16.0856 21.472 16 21.6875 16V16ZM17.625 22.5V38.75C17.625 39.181 17.7962 39.5943 18.101 39.899C18.4057 40.2038 18.819 40.375 19.25 40.375H38.75C39.181 40.375 39.5943 40.2038 39.899 39.899C40.2038 39.5943 40.375 39.181 40.375 38.75V22.5H17.625Z" fill="#4971FF"/>
</svg>
