<svg width="14" height="14" viewBox="0 0 14 14" fill="none" xmlns="http://www.w3.org/2000/svg">
    <path d="M6.99999 4.68049C5.72279 4.68049 4.68049 5.72279 4.68049 6.99999C4.68049 8.27719 5.72279 9.31948 6.99999 9.31948C8.27719 9.31948 9.31948 8.27719 9.31948 6.99999C9.31948 5.72279 8.27719 4.68049 6.99999 4.68049ZM13.9567 6.99999C13.9567 6.03948 13.9654 5.08767 13.9115 4.12889C13.8576 3.01526 13.6035 2.02691 12.7892 1.21256C11.9731 0.396473 10.9865 0.144165 9.87282 0.0902231C8.91231 0.0362814 7.9605 0.0449817 7.00173 0.0449817C6.04122 0.0449817 5.08941 0.0362814 4.13064 0.0902231C3.017 0.144165 2.02865 0.398213 1.2143 1.21256C0.398213 2.02865 0.145904 3.01526 0.0919626 4.12889C0.0380209 5.08941 0.0467212 6.04122 0.0467212 6.99999C0.0467212 7.95876 0.0380209 8.91231 0.0919626 9.87108C0.145904 10.9847 0.399953 11.9731 1.2143 12.7874C2.03039 13.6035 3.017 13.8558 4.13064 13.9098C5.09115 13.9637 6.04296 13.955 7.00173 13.955C7.96224 13.955 8.91405 13.9637 9.87282 13.9098C10.9865 13.8558 11.9748 13.6018 12.7892 12.7874C13.6052 11.9713 13.8576 10.9847 13.9115 9.87108C13.9672 8.91231 13.9567 7.9605 13.9567 6.99999ZM6.99999 10.5688C5.02502 10.5688 3.43113 8.97495 3.43113 6.99999C3.43113 5.02502 5.02502 3.43113 6.99999 3.43113C8.97495 3.43113 10.5688 5.02502 10.5688 6.99999C10.5688 8.97495 8.97495 10.5688 6.99999 10.5688ZM10.715 4.11845C10.2539 4.11845 9.88152 3.74608 9.88152 3.28497C9.88152 2.82385 10.2539 2.45148 10.715 2.45148C11.1761 2.45148 11.5485 2.82385 11.5485 3.28497C11.5486 3.39446 11.5272 3.50291 11.4853 3.60409C11.4435 3.70528 11.3821 3.79721 11.3047 3.87464C11.2273 3.95206 11.1353 4.01345 11.0341 4.05529C10.933 4.09713 10.8245 4.11859 10.715 4.11845Z" fill="#5E5E5E" />
</svg>