<svg width="57" height="57" viewBox="0 0 57 57" fill="none" xmlns="http://www.w3.org/2000/svg">
<circle cx="28.5" cy="28.5" r="28.5" fill="#EEF1F3"/>
<path d="M37.9375 19.25H16.8125V35.5H37.9375V19.25ZM36.3125 33.875H18.4375V20.875H36.3125V33.875Z" fill="#4971FF"/>
<path d="M39.5625 23.3125V37.125H20.875V38.75H41.1875V23.3125H39.5625Z" fill="#4971FF"/>
<path d="M27.375 31.3593C29.391 31.3593 31.0312 29.575 31.0312 27.3818C31.0312 25.1886 29.391 23.4043 27.375 23.4043C25.359 23.4043 23.7188 25.1886 23.7188 27.3818C23.7188 29.575 25.359 31.3593 27.375 31.3593ZM27.375 25.0293C28.495 25.0293 29.4062 26.0846 29.4062 27.3818C29.4062 28.679 28.495 29.7343 27.375 29.7343C26.255 29.7343 25.3438 28.679 25.3438 27.3818C25.3438 26.0846 26.255 25.0293 27.375 25.0293ZM20.0625 22.9062H21.6875V31.8438H20.0625V22.9062ZM33.0625 22.9062H34.6875V31.8438H33.0625V22.9062Z" fill="#4971FF"/>
</svg>
