<svg width="49" height="49" viewBox="0 0 49 49" fill="none" xmlns="http://www.w3.org/2000/svg">
<circle cx="24.5" cy="24.5" r="24.5" fill="#4971FF"/>
<path d="M17.5 34C17.5 34 16 34 16 32.5C16 31 17.5 26.5 25 26.5C32.5 26.5 34 31 34 32.5C34 34 32.5 34 32.5 34H17.5ZM25 25C26.1935 25 27.3381 24.5259 28.182 23.682C29.0259 22.8381 29.5 21.6935 29.5 20.5C29.5 19.3065 29.0259 18.1619 28.182 17.318C27.3381 16.4741 26.1935 16 25 16C23.8065 16 22.6619 16.4741 21.818 17.318C20.9741 18.1619 20.5 19.3065 20.5 20.5C20.5 21.6935 20.9741 22.8381 21.818 23.682C22.6619 24.5259 23.8065 25 25 25Z" fill="white"/>
</svg>
