<svg width="13" height="13" viewBox="0 0 13 13" fill="none" xmlns="http://www.w3.org/2000/svg">
<path d="M12.7292 5.41667H7.58333V0.270833C7.58333 0.121875 7.46146 0 7.3125 0H5.6875C5.53854 0 5.41667 0.121875 5.41667 0.270833V5.41667H0.270833C0.121875 5.41667 0 5.53854 0 5.6875V7.3125C0 7.46146 0.121875 7.58333 0.270833 7.58333H5.41667V12.7292C5.41667 12.8781 5.53854 13 5.6875 13H7.3125C7.46146 13 7.58333 12.8781 7.58333 12.7292V7.58333H12.7292C12.8781 7.58333 13 7.46146 13 7.3125V5.6875C13 5.53854 12.8781 5.41667 12.7292 5.41667Z" fill="white"/>
</svg>
