<svg width="15" height="14" viewBox="0 0 15 14" fill="none" xmlns="http://www.w3.org/2000/svg">
<path d="M12.7673 11.2327C12.416 10.8963 12.0741 10.5501 11.742 10.1947C11.463 9.91125 11.295 9.705 11.295 9.705L9.195 8.70225C10.0357 7.74873 10.4998 6.52124 10.5 5.25C10.5 2.35575 8.145 0 5.25 0C2.355 0 0 2.35575 0 5.25C0 8.14425 2.355 10.5 5.25 10.5C6.57225 10.5 7.7775 10.005 8.70225 9.19575L9.705 11.2958C9.705 11.2958 9.91125 11.4637 10.1947 11.7428C10.485 12.015 10.8667 12.3833 11.2327 12.768L12.2512 13.812L12.7042 14.2965L14.295 12.7057L13.8105 12.2528C13.5262 11.9738 13.1468 11.6032 12.7673 11.2327ZM5.25 9C3.18225 9 1.5 7.31775 1.5 5.25C1.5 3.18225 3.18225 1.5 5.25 1.5C7.31775 1.5 9 3.18225 9 5.25C9 7.31775 7.31775 9 5.25 9Z" fill="#4971FF"/>
</svg>
