<svg width="57" height="57" viewBox="0 0 57 57" fill="none" xmlns="http://www.w3.org/2000/svg">
<circle cx="28.5" cy="28.5" r="28.5" fill="#EEF1F3"/>
<path d="M40.0906 18.3094L29.4719 14.6906C29.3437 14.6469 29.1719 14.625 29 14.625C28.8281 14.625 28.6562 14.6469 28.5281 14.6906L17.9094 18.3094C17.65 18.3969 17.4375 18.6969 17.4375 18.9719V34.0469C17.4375 34.3219 17.6156 34.6844 17.8313 34.8563L28.6031 43.25C28.7125 43.3344 28.8531 43.3781 28.9969 43.3781C29.1406 43.3781 29.2844 43.3344 29.3906 43.25L40.1625 34.8563C40.3781 34.6875 40.5562 34.325 40.5562 34.0469V18.9719C40.5625 18.6969 40.35 18.4 40.0906 18.3094V18.3094ZM38.3125 33.4469L29 40.7031L19.6875 33.4469V20.0844L29 16.9094L38.3125 20.0844V33.4469ZM25.6313 27.1656C25.5375 27.0375 25.3875 26.9594 25.225 26.9594H23.5C23.2969 26.9594 23.1781 27.1906 23.2969 27.3563L27.2469 32.7938C27.2936 32.8577 27.3547 32.9097 27.4253 32.9455C27.4959 32.9814 27.574 33.0001 27.6531 33.0001C27.7323 33.0001 27.8104 32.9814 27.8809 32.9455C27.9515 32.9097 28.0127 32.8577 28.0594 32.7938L34.7031 23.6469C34.8219 23.4813 34.7031 23.25 34.5 23.25H32.775C32.6156 23.25 32.4625 23.3281 32.3687 23.4563L27.6531 29.95L25.6313 27.1656Z" fill="#4971FF"/>
</svg>
